<?xml version="1.0" encoding="UTF-8" standalone="no"?>
<!-- Created with Inkscape (http://www.inkscape.org/) -->

<svg
   width="512"
   height="512"
   viewBox="0 0 512 512"
   version="1.1"
   id="svg1"
   xml:space="preserve"
   xmlns="http://www.w3.org/2000/svg"
   xmlns:svg="http://www.w3.org/2000/svg"><defs
     id="defs1" /><g
     id="layer1"
     transform="translate(-824.59723,-109.36303)"><g
       id="g18"
       transform="matrix(2.9381674,0,0,2.9381674,832.67289,2.5861329)"
       style="clip-rule:evenodd;fill-rule:evenodd;image-rendering:optimizeQuality;shape-rendering:geometricPrecision;text-rendering:geometricPrecision"><g
         id="g2"
         transform="translate(10.403097,18.970353)"><path
           style="opacity:1"
           fill="#181818"
           d="m 114.5,132.5 c -12,0 -24,0 -36,0 -0.3128,3.542 0.0206,6.875 1,10 5.3437,-0.166 10.6771,0.001 16,0.5 2.918,3.472 2.5846,6.472 -1,9 -13.6667,0.667 -27.3333,0.667 -41,0 -3.5846,-2.528 -3.918,-5.528 -1,-9 5.3229,-0.499 10.6563,-0.666 16,-0.5 0.9794,-3.125 1.3128,-6.458 1,-10 -12,0 -24,0 -36,0 -5.4215,-0.962 -9.2548,-3.962 -11.5,-9 -0.9754,-20.09 -0.6421,-40.0896 1,-60 1.7648,-2.973 4.2648,-5.1396 7.5,-6.5 28.6667,-0.6667 57.3333,-0.6667 86,0 4.735,1.0681 7.902,3.9014 9.5,8.5 0.667,19 0.667,38 0,57 -1.503,6.002 -5.336,9.336 -11.5,10 z"
           id="path2" /></g><g
         id="g3"
         transform="translate(10.403097,18.970353)"><path
           style="opacity:1"
           fill="#f9f9f9"
           d="m 33.5,65.5 c 27.0021,-0.1666 54.0021,0 81,0.5 0.833,0.8333 1.667,1.6667 2.5,2.5 0.667,17.3333 0.667,34.667 0,52 -0.833,0.833 -1.667,1.667 -2.5,2.5 -27,0.667 -54,0.667 -81,0 -0.8333,-0.833 -1.6667,-1.667 -2.5,-2.5 -0.6667,-17.333 -0.6667,-34.6667 0,-52 1.045,-0.8734 1.8783,-1.8734 2.5,-3 z"
           id="path3" /></g><g
         id="g8"
         transform="translate(10.403097,18.970353)"><path
           style="opacity:1"
           fill="#191919"
           d="m 80.5,93.5 c -0.2828,-0.7891 -0.7828,-1.4558 -1.5,-2 -0.4995,6.3246 -0.6662,12.658 -0.5,19 -2.4083,3.513 -5.2417,3.846 -8.5,1 -0.3333,-6.667 -0.6667,-13.3333 -1,-20 -2.754,3.2621 -5.9206,5.9288 -9.5,8 -3.7541,-1.3516 -4.9208,-4.0183 -3.5,-8 5.4497,-6.1259 11.4497,-11.4592 18,-16 6.8589,4.8467 13.1923,10.5134 19,17 0.7831,3.7295 -0.7169,6.0628 -4.5,7 -2.9427,-1.6063 -5.6094,-3.6063 -8,-6 z"
           id="path8" /></g><g
         id="g12"
         transform="translate(10.403097,18.970353)"><path
           style="opacity:1"
           fill="#a1a1a1"
           d="m 80.5,93.5 c -0.6667,5.6667 -1.3333,11.333 -2,17 -0.1662,-6.342 5e-4,-12.6754 0.5,-19 0.7172,0.5442 1.2172,1.2109 1.5,2 z"
           id="path12" /></g><g
         id="g15"
         transform="translate(10.403097,18.970353)"><path
           style="opacity:1"
           fill="#adadad"
           d="m 33.5,132.5 c 12,0 24,0 36,0 0.3128,3.542 -0.0206,6.875 -1,10 0,-3 0,-6 0,-9 -11.8453,0.328 -23.512,-0.005 -35,-1 z"
           id="path15" /></g><g
         id="g16"
         transform="translate(10.403097,18.970353)"><path
           style="opacity:1"
           fill="#a6a6a6"
           d="m 114.5,132.5 c -11.488,0.995 -23.1547,1.328 -35,1 0,3 0,6 0,9 -0.9794,-3.125 -1.3128,-6.458 -1,-10 12,0 24,0 36,0 z"
           id="path16" /></g></g></g></svg>
